<mxfile host="app.diagrams.net" modified="2022-05-15T11:19:26.575Z" agent="5.0 (Windows NT 10.0; Win64; x64) AppleWebKit/537.36 (KHTML, like Gecko) Chrome/99.0.4844.84 Safari/537.36 OPR/85.0.4341.79" etag="fTvw1JtB4HogGWDfBNiM" version="18.0.2" type="github">
  <diagram id="vELPEkhLMTeFOMXlJ44O" name="Page-1">
    <mxGraphModel dx="2151" dy="723" grid="1" gridSize="10" guides="1" tooltips="1" connect="1" arrows="1" fold="1" page="1" pageScale="1" pageWidth="827" pageHeight="1169" math="0" shadow="0">
      <root>
        <mxCell id="0" />
        <mxCell id="1" parent="0" />
        <mxCell id="m22iCB-XYUznmMrSTrO6-69" style="edgeStyle=orthogonalEdgeStyle;rounded=0;orthogonalLoop=1;jettySize=auto;html=1;endArrow=diamondThin;endFill=0;startSize=12;endSize=12;" edge="1" parent="1" source="m22iCB-XYUznmMrSTrO6-1" target="m22iCB-XYUznmMrSTrO6-24">
          <mxGeometry relative="1" as="geometry">
            <Array as="points">
              <mxPoint x="620" y="220" />
              <mxPoint x="620" y="515" />
            </Array>
          </mxGeometry>
        </mxCell>
        <mxCell id="m22iCB-XYUznmMrSTrO6-70" style="edgeStyle=orthogonalEdgeStyle;rounded=0;orthogonalLoop=1;jettySize=auto;html=1;endArrow=diamondThin;endFill=0;startSize=12;endSize=12;" edge="1" parent="1" source="m22iCB-XYUznmMrSTrO6-1" target="m22iCB-XYUznmMrSTrO6-19">
          <mxGeometry relative="1" as="geometry">
            <Array as="points">
              <mxPoint x="620" y="220" />
              <mxPoint x="620" y="360" />
            </Array>
          </mxGeometry>
        </mxCell>
        <mxCell id="m22iCB-XYUznmMrSTrO6-71" style="edgeStyle=orthogonalEdgeStyle;rounded=0;orthogonalLoop=1;jettySize=auto;html=1;endArrow=diamondThin;endFill=0;startSize=12;endSize=12;" edge="1" parent="1" source="m22iCB-XYUznmMrSTrO6-1" target="m22iCB-XYUznmMrSTrO6-14">
          <mxGeometry relative="1" as="geometry">
            <Array as="points">
              <mxPoint x="620" y="220" />
              <mxPoint x="620" y="115" />
            </Array>
          </mxGeometry>
        </mxCell>
        <mxCell id="m22iCB-XYUznmMrSTrO6-1" value="Пользователи" style="swimlane;fontStyle=0;childLayout=stackLayout;horizontal=1;startSize=30;horizontalStack=0;resizeParent=1;resizeParentMax=0;resizeLast=0;collapsible=1;marginBottom=0;" vertex="1" parent="1">
          <mxGeometry x="634" y="40" width="166" height="360" as="geometry" />
        </mxCell>
        <mxCell id="m22iCB-XYUznmMrSTrO6-2" value="Имя" style="text;strokeColor=none;fillColor=none;align=left;verticalAlign=middle;spacingLeft=4;spacingRight=4;overflow=hidden;points=[[0,0.5],[1,0.5]];portConstraint=eastwest;rotatable=0;" vertex="1" parent="m22iCB-XYUznmMrSTrO6-1">
          <mxGeometry y="30" width="166" height="30" as="geometry" />
        </mxCell>
        <mxCell id="m22iCB-XYUznmMrSTrO6-3" value="Фамилия" style="text;strokeColor=none;fillColor=none;align=left;verticalAlign=middle;spacingLeft=4;spacingRight=4;overflow=hidden;points=[[0,0.5],[1,0.5]];portConstraint=eastwest;rotatable=0;" vertex="1" parent="m22iCB-XYUznmMrSTrO6-1">
          <mxGeometry y="60" width="166" height="30" as="geometry" />
        </mxCell>
        <mxCell id="m22iCB-XYUznmMrSTrO6-4" value="Отчество" style="text;strokeColor=none;fillColor=none;align=left;verticalAlign=middle;spacingLeft=4;spacingRight=4;overflow=hidden;points=[[0,0.5],[1,0.5]];portConstraint=eastwest;rotatable=0;" vertex="1" parent="m22iCB-XYUznmMrSTrO6-1">
          <mxGeometry y="90" width="166" height="30" as="geometry" />
        </mxCell>
        <mxCell id="m22iCB-XYUznmMrSTrO6-5" value="Электронная почта" style="text;strokeColor=none;fillColor=none;align=left;verticalAlign=middle;spacingLeft=4;spacingRight=4;overflow=hidden;points=[[0,0.5],[1,0.5]];portConstraint=eastwest;rotatable=0;" vertex="1" parent="m22iCB-XYUznmMrSTrO6-1">
          <mxGeometry y="120" width="166" height="30" as="geometry" />
        </mxCell>
        <mxCell id="m22iCB-XYUznmMrSTrO6-6" value="Пароль" style="text;strokeColor=none;fillColor=none;align=left;verticalAlign=middle;spacingLeft=4;spacingRight=4;overflow=hidden;points=[[0,0.5],[1,0.5]];portConstraint=eastwest;rotatable=0;" vertex="1" parent="m22iCB-XYUznmMrSTrO6-1">
          <mxGeometry y="150" width="166" height="30" as="geometry" />
        </mxCell>
        <mxCell id="m22iCB-XYUznmMrSTrO6-7" value="Дата рождения" style="text;strokeColor=none;fillColor=none;align=left;verticalAlign=middle;spacingLeft=4;spacingRight=4;overflow=hidden;points=[[0,0.5],[1,0.5]];portConstraint=eastwest;rotatable=0;" vertex="1" parent="m22iCB-XYUznmMrSTrO6-1">
          <mxGeometry y="180" width="166" height="30" as="geometry" />
        </mxCell>
        <mxCell id="m22iCB-XYUznmMrSTrO6-8" value="Пол" style="text;strokeColor=none;fillColor=none;align=left;verticalAlign=middle;spacingLeft=4;spacingRight=4;overflow=hidden;points=[[0,0.5],[1,0.5]];portConstraint=eastwest;rotatable=0;" vertex="1" parent="m22iCB-XYUznmMrSTrO6-1">
          <mxGeometry y="210" width="166" height="30" as="geometry" />
        </mxCell>
        <mxCell id="m22iCB-XYUznmMrSTrO6-9" value="Казуальный пользователь" style="text;strokeColor=none;fillColor=none;align=left;verticalAlign=middle;spacingLeft=4;spacingRight=4;overflow=hidden;points=[[0,0.5],[1,0.5]];portConstraint=eastwest;rotatable=0;" vertex="1" parent="m22iCB-XYUznmMrSTrO6-1">
          <mxGeometry y="240" width="166" height="30" as="geometry" />
        </mxCell>
        <mxCell id="m22iCB-XYUznmMrSTrO6-10" value="Бизнес пользователь" style="text;strokeColor=none;fillColor=none;align=left;verticalAlign=middle;spacingLeft=4;spacingRight=4;overflow=hidden;points=[[0,0.5],[1,0.5]];portConstraint=eastwest;rotatable=0;" vertex="1" parent="m22iCB-XYUznmMrSTrO6-1">
          <mxGeometry y="270" width="166" height="30" as="geometry" />
        </mxCell>
        <mxCell id="m22iCB-XYUznmMrSTrO6-11" value="Модератор" style="text;strokeColor=none;fillColor=none;align=left;verticalAlign=middle;spacingLeft=4;spacingRight=4;overflow=hidden;points=[[0,0.5],[1,0.5]];portConstraint=eastwest;rotatable=0;" vertex="1" parent="m22iCB-XYUznmMrSTrO6-1">
          <mxGeometry y="300" width="166" height="30" as="geometry" />
        </mxCell>
        <mxCell id="m22iCB-XYUznmMrSTrO6-12" value="Работники" style="text;strokeColor=none;fillColor=none;align=left;verticalAlign=middle;spacingLeft=4;spacingRight=4;overflow=hidden;points=[[0,0.5],[1,0.5]];portConstraint=eastwest;rotatable=0;" vertex="1" parent="m22iCB-XYUznmMrSTrO6-1">
          <mxGeometry y="330" width="166" height="30" as="geometry" />
        </mxCell>
        <mxCell id="m22iCB-XYUznmMrSTrO6-72" style="edgeStyle=orthogonalEdgeStyle;rounded=0;orthogonalLoop=1;jettySize=auto;html=1;endArrow=diamondThin;endFill=0;startSize=12;endSize=12;" edge="1" parent="1" source="m22iCB-XYUznmMrSTrO6-14" target="m22iCB-XYUznmMrSTrO6-29">
          <mxGeometry relative="1" as="geometry" />
        </mxCell>
        <mxCell id="m22iCB-XYUznmMrSTrO6-14" value="Казуальный п-ль" style="swimlane;fontStyle=0;childLayout=stackLayout;horizontal=1;startSize=30;horizontalStack=0;resizeParent=1;resizeParentMax=0;resizeLast=0;collapsible=1;marginBottom=0;" vertex="1" parent="1">
          <mxGeometry x="440" y="40" width="140" height="150" as="geometry" />
        </mxCell>
        <mxCell id="m22iCB-XYUznmMrSTrO6-15" value="Пользователь" style="text;strokeColor=none;fillColor=none;align=left;verticalAlign=middle;spacingLeft=4;spacingRight=4;overflow=hidden;points=[[0,0.5],[1,0.5]];portConstraint=eastwest;rotatable=0;" vertex="1" parent="m22iCB-XYUznmMrSTrO6-14">
          <mxGeometry y="30" width="140" height="30" as="geometry" />
        </mxCell>
        <mxCell id="m22iCB-XYUznmMrSTrO6-16" value="Баланс" style="text;strokeColor=none;fillColor=none;align=left;verticalAlign=middle;spacingLeft=4;spacingRight=4;overflow=hidden;points=[[0,0.5],[1,0.5]];portConstraint=eastwest;rotatable=0;" vertex="1" parent="m22iCB-XYUznmMrSTrO6-14">
          <mxGeometry y="60" width="140" height="30" as="geometry" />
        </mxCell>
        <mxCell id="m22iCB-XYUznmMrSTrO6-17" value="Пассажиры" style="text;strokeColor=none;fillColor=none;align=left;verticalAlign=middle;spacingLeft=4;spacingRight=4;overflow=hidden;points=[[0,0.5],[1,0.5]];portConstraint=eastwest;rotatable=0;" vertex="1" parent="m22iCB-XYUznmMrSTrO6-14">
          <mxGeometry y="90" width="140" height="30" as="geometry" />
        </mxCell>
        <mxCell id="m22iCB-XYUznmMrSTrO6-18" value="Отзывы" style="text;strokeColor=none;fillColor=none;align=left;verticalAlign=middle;spacingLeft=4;spacingRight=4;overflow=hidden;points=[[0,0.5],[1,0.5]];portConstraint=eastwest;rotatable=0;" vertex="1" parent="m22iCB-XYUznmMrSTrO6-14">
          <mxGeometry y="120" width="140" height="30" as="geometry" />
        </mxCell>
        <mxCell id="m22iCB-XYUznmMrSTrO6-67" style="edgeStyle=orthogonalEdgeStyle;rounded=0;orthogonalLoop=1;jettySize=auto;html=1;endArrow=diamondThin;endFill=0;startSize=12;endSize=12;" edge="1" parent="1" source="m22iCB-XYUznmMrSTrO6-19" target="m22iCB-XYUznmMrSTrO6-60">
          <mxGeometry relative="1" as="geometry">
            <Array as="points">
              <mxPoint x="180" y="360" />
              <mxPoint x="180" y="395" />
            </Array>
          </mxGeometry>
        </mxCell>
        <mxCell id="m22iCB-XYUznmMrSTrO6-19" value="Модератор" style="swimlane;fontStyle=0;childLayout=stackLayout;horizontal=1;startSize=30;horizontalStack=0;resizeParent=1;resizeParentMax=0;resizeLast=0;collapsible=1;marginBottom=0;" vertex="1" parent="1">
          <mxGeometry x="450" y="330" width="140" height="60" as="geometry" />
        </mxCell>
        <mxCell id="m22iCB-XYUznmMrSTrO6-20" value="Пользователь" style="text;strokeColor=none;fillColor=none;align=left;verticalAlign=middle;spacingLeft=4;spacingRight=4;overflow=hidden;points=[[0,0.5],[1,0.5]];portConstraint=eastwest;rotatable=0;" vertex="1" parent="m22iCB-XYUznmMrSTrO6-19">
          <mxGeometry y="30" width="140" height="30" as="geometry" />
        </mxCell>
        <mxCell id="m22iCB-XYUznmMrSTrO6-68" style="edgeStyle=orthogonalEdgeStyle;rounded=0;orthogonalLoop=1;jettySize=auto;html=1;endArrow=diamondThin;endFill=0;startSize=12;endSize=12;" edge="1" parent="1" source="m22iCB-XYUznmMrSTrO6-24" target="m22iCB-XYUznmMrSTrO6-39">
          <mxGeometry relative="1" as="geometry" />
        </mxCell>
        <mxCell id="m22iCB-XYUznmMrSTrO6-24" value="Бизнес п-ль" style="swimlane;fontStyle=0;childLayout=stackLayout;horizontal=1;startSize=30;horizontalStack=0;resizeParent=1;resizeParentMax=0;resizeLast=0;collapsible=1;marginBottom=0;" vertex="1" parent="1">
          <mxGeometry x="450" y="455" width="140" height="120" as="geometry" />
        </mxCell>
        <mxCell id="m22iCB-XYUznmMrSTrO6-25" value="Пользователь" style="text;strokeColor=none;fillColor=none;align=left;verticalAlign=middle;spacingLeft=4;spacingRight=4;overflow=hidden;points=[[0,0.5],[1,0.5]];portConstraint=eastwest;rotatable=0;" vertex="1" parent="m22iCB-XYUznmMrSTrO6-24">
          <mxGeometry y="30" width="140" height="30" as="geometry" />
        </mxCell>
        <mxCell id="m22iCB-XYUznmMrSTrO6-26" value="Компания" style="text;strokeColor=none;fillColor=none;align=left;verticalAlign=middle;spacingLeft=4;spacingRight=4;overflow=hidden;points=[[0,0.5],[1,0.5]];portConstraint=eastwest;rotatable=0;" vertex="1" parent="m22iCB-XYUznmMrSTrO6-24">
          <mxGeometry y="60" width="140" height="30" as="geometry" />
        </mxCell>
        <mxCell id="m22iCB-XYUznmMrSTrO6-27" value="Блокировка" style="text;strokeColor=none;fillColor=none;align=left;verticalAlign=middle;spacingLeft=4;spacingRight=4;overflow=hidden;points=[[0,0.5],[1,0.5]];portConstraint=eastwest;rotatable=0;" vertex="1" parent="m22iCB-XYUznmMrSTrO6-24">
          <mxGeometry y="90" width="140" height="30" as="geometry" />
        </mxCell>
        <mxCell id="m22iCB-XYUznmMrSTrO6-29" value="Пассажир" style="swimlane;fontStyle=0;childLayout=stackLayout;horizontal=1;startSize=30;horizontalStack=0;resizeParent=1;resizeParentMax=0;resizeLast=0;collapsible=1;marginBottom=0;" vertex="1" parent="1">
          <mxGeometry x="200" y="40" width="190" height="300" as="geometry" />
        </mxCell>
        <mxCell id="m22iCB-XYUznmMrSTrO6-30" value="Документ" style="text;strokeColor=none;fillColor=none;align=left;verticalAlign=middle;spacingLeft=4;spacingRight=4;overflow=hidden;points=[[0,0.5],[1,0.5]];portConstraint=eastwest;rotatable=0;" vertex="1" parent="m22iCB-XYUznmMrSTrO6-29">
          <mxGeometry y="30" width="190" height="30" as="geometry" />
        </mxCell>
        <mxCell id="m22iCB-XYUznmMrSTrO6-31" value="Имя" style="text;strokeColor=none;fillColor=none;align=left;verticalAlign=middle;spacingLeft=4;spacingRight=4;overflow=hidden;points=[[0,0.5],[1,0.5]];portConstraint=eastwest;rotatable=0;" vertex="1" parent="m22iCB-XYUznmMrSTrO6-29">
          <mxGeometry y="60" width="190" height="30" as="geometry" />
        </mxCell>
        <mxCell id="m22iCB-XYUznmMrSTrO6-32" value="Фамилия" style="text;strokeColor=none;fillColor=none;align=left;verticalAlign=middle;spacingLeft=4;spacingRight=4;overflow=hidden;points=[[0,0.5],[1,0.5]];portConstraint=eastwest;rotatable=0;" vertex="1" parent="m22iCB-XYUznmMrSTrO6-29">
          <mxGeometry y="90" width="190" height="30" as="geometry" />
        </mxCell>
        <mxCell id="m22iCB-XYUznmMrSTrO6-33" value="Отчество" style="text;strokeColor=none;fillColor=none;align=left;verticalAlign=middle;spacingLeft=4;spacingRight=4;overflow=hidden;points=[[0,0.5],[1,0.5]];portConstraint=eastwest;rotatable=0;" vertex="1" parent="m22iCB-XYUznmMrSTrO6-29">
          <mxGeometry y="120" width="190" height="30" as="geometry" />
        </mxCell>
        <mxCell id="m22iCB-XYUznmMrSTrO6-34" value="Дата рождения" style="text;strokeColor=none;fillColor=none;align=left;verticalAlign=middle;spacingLeft=4;spacingRight=4;overflow=hidden;points=[[0,0.5],[1,0.5]];portConstraint=eastwest;rotatable=0;" vertex="1" parent="m22iCB-XYUznmMrSTrO6-29">
          <mxGeometry y="150" width="190" height="30" as="geometry" />
        </mxCell>
        <mxCell id="m22iCB-XYUznmMrSTrO6-35" value="Владелец" style="text;strokeColor=none;fillColor=none;align=left;verticalAlign=middle;spacingLeft=4;spacingRight=4;overflow=hidden;points=[[0,0.5],[1,0.5]];portConstraint=eastwest;rotatable=0;" vertex="1" parent="m22iCB-XYUznmMrSTrO6-29">
          <mxGeometry y="180" width="190" height="30" as="geometry" />
        </mxCell>
        <mxCell id="m22iCB-XYUznmMrSTrO6-36" value="Тип прикреплённого документа" style="text;strokeColor=none;fillColor=none;align=left;verticalAlign=middle;spacingLeft=4;spacingRight=4;overflow=hidden;points=[[0,0.5],[1,0.5]];portConstraint=eastwest;rotatable=0;" vertex="1" parent="m22iCB-XYUznmMrSTrO6-29">
          <mxGeometry y="210" width="190" height="30" as="geometry" />
        </mxCell>
        <mxCell id="m22iCB-XYUznmMrSTrO6-37" value="Казуальный пользователь" style="text;strokeColor=none;fillColor=none;align=left;verticalAlign=middle;spacingLeft=4;spacingRight=4;overflow=hidden;points=[[0,0.5],[1,0.5]];portConstraint=eastwest;rotatable=0;" vertex="1" parent="m22iCB-XYUznmMrSTrO6-29">
          <mxGeometry y="240" width="190" height="30" as="geometry" />
        </mxCell>
        <mxCell id="m22iCB-XYUznmMrSTrO6-38" value="Билеты" style="text;strokeColor=none;fillColor=none;align=left;verticalAlign=middle;spacingLeft=4;spacingRight=4;overflow=hidden;points=[[0,0.5],[1,0.5]];portConstraint=eastwest;rotatable=0;" vertex="1" parent="m22iCB-XYUznmMrSTrO6-29">
          <mxGeometry y="270" width="190" height="30" as="geometry" />
        </mxCell>
        <mxCell id="m22iCB-XYUznmMrSTrO6-66" style="edgeStyle=orthogonalEdgeStyle;rounded=0;orthogonalLoop=1;jettySize=auto;html=1;endArrow=diamondThin;endFill=0;endSize=12;startSize=12;" edge="1" parent="1" source="m22iCB-XYUznmMrSTrO6-39" target="m22iCB-XYUznmMrSTrO6-60">
          <mxGeometry relative="1" as="geometry" />
        </mxCell>
        <mxCell id="m22iCB-XYUznmMrSTrO6-39" value="Компания" style="swimlane;fontStyle=0;childLayout=stackLayout;horizontal=1;startSize=30;horizontalStack=0;resizeParent=1;resizeParentMax=0;resizeLast=0;collapsible=1;marginBottom=0;" vertex="1" parent="1">
          <mxGeometry x="200" y="380" width="190" height="270" as="geometry" />
        </mxCell>
        <mxCell id="m22iCB-XYUznmMrSTrO6-40" value="Название" style="text;strokeColor=none;fillColor=none;align=left;verticalAlign=middle;spacingLeft=4;spacingRight=4;overflow=hidden;points=[[0,0.5],[1,0.5]];portConstraint=eastwest;rotatable=0;" vertex="1" parent="m22iCB-XYUznmMrSTrO6-39">
          <mxGeometry y="30" width="190" height="30" as="geometry" />
        </mxCell>
        <mxCell id="m22iCB-XYUznmMrSTrO6-41" value="Владелец" style="text;strokeColor=none;fillColor=none;align=left;verticalAlign=middle;spacingLeft=4;spacingRight=4;overflow=hidden;points=[[0,0.5],[1,0.5]];portConstraint=eastwest;rotatable=0;" vertex="1" parent="m22iCB-XYUznmMrSTrO6-39">
          <mxGeometry y="60" width="190" height="30" as="geometry" />
        </mxCell>
        <mxCell id="m22iCB-XYUznmMrSTrO6-42" value="Подтверждение" style="text;strokeColor=none;fillColor=none;align=left;verticalAlign=middle;spacingLeft=4;spacingRight=4;overflow=hidden;points=[[0,0.5],[1,0.5]];portConstraint=eastwest;rotatable=0;" vertex="1" parent="m22iCB-XYUznmMrSTrO6-39">
          <mxGeometry y="90" width="190" height="30" as="geometry" />
        </mxCell>
        <mxCell id="m22iCB-XYUznmMrSTrO6-43" value="Блокировка" style="text;strokeColor=none;fillColor=none;align=left;verticalAlign=middle;spacingLeft=4;spacingRight=4;overflow=hidden;points=[[0,0.5],[1,0.5]];portConstraint=eastwest;rotatable=0;" vertex="1" parent="m22iCB-XYUznmMrSTrO6-39">
          <mxGeometry y="120" width="190" height="30" as="geometry" />
        </mxCell>
        <mxCell id="m22iCB-XYUznmMrSTrO6-44" value="Код приглашения" style="text;strokeColor=none;fillColor=none;align=left;verticalAlign=middle;spacingLeft=4;spacingRight=4;overflow=hidden;points=[[0,0.5],[1,0.5]];portConstraint=eastwest;rotatable=0;" vertex="1" parent="m22iCB-XYUznmMrSTrO6-39">
          <mxGeometry y="150" width="190" height="30" as="geometry" />
        </mxCell>
        <mxCell id="m22iCB-XYUznmMrSTrO6-45" value="Документы компании" style="text;strokeColor=none;fillColor=none;align=left;verticalAlign=middle;spacingLeft=4;spacingRight=4;overflow=hidden;points=[[0,0.5],[1,0.5]];portConstraint=eastwest;rotatable=0;" vertex="1" parent="m22iCB-XYUznmMrSTrO6-39">
          <mxGeometry y="180" width="190" height="30" as="geometry" />
        </mxCell>
        <mxCell id="m22iCB-XYUznmMrSTrO6-46" value="Сотрудники" style="text;strokeColor=none;fillColor=none;align=left;verticalAlign=middle;spacingLeft=4;spacingRight=4;overflow=hidden;points=[[0,0.5],[1,0.5]];portConstraint=eastwest;rotatable=0;" vertex="1" parent="m22iCB-XYUznmMrSTrO6-39">
          <mxGeometry y="210" width="190" height="30" as="geometry" />
        </mxCell>
        <mxCell id="m22iCB-XYUznmMrSTrO6-47" value="Транспортные средства" style="text;strokeColor=none;fillColor=none;align=left;verticalAlign=middle;spacingLeft=4;spacingRight=4;overflow=hidden;points=[[0,0.5],[1,0.5]];portConstraint=eastwest;rotatable=0;" vertex="1" parent="m22iCB-XYUznmMrSTrO6-39">
          <mxGeometry y="240" width="190" height="30" as="geometry" />
        </mxCell>
        <mxCell id="m22iCB-XYUznmMrSTrO6-65" style="edgeStyle=orthogonalEdgeStyle;rounded=0;orthogonalLoop=1;jettySize=auto;html=1;endArrow=diamondThin;endFill=0;endSize=12;" edge="1" parent="1" source="m22iCB-XYUznmMrSTrO6-51" target="m22iCB-XYUznmMrSTrO6-60">
          <mxGeometry relative="1" as="geometry" />
        </mxCell>
        <mxCell id="m22iCB-XYUznmMrSTrO6-51" value="Статусы подтверждения компании" style="swimlane;fontStyle=0;childLayout=stackLayout;horizontal=1;startSize=30;horizontalStack=0;resizeParent=1;resizeParentMax=0;resizeLast=0;collapsible=1;marginBottom=0;" vertex="1" parent="1">
          <mxGeometry x="-270" y="380" width="190" height="90" as="geometry" />
        </mxCell>
        <mxCell id="m22iCB-XYUznmMrSTrO6-52" value="Название" style="text;strokeColor=none;fillColor=none;align=left;verticalAlign=middle;spacingLeft=4;spacingRight=4;overflow=hidden;points=[[0,0.5],[1,0.5]];portConstraint=eastwest;rotatable=0;" vertex="1" parent="m22iCB-XYUznmMrSTrO6-51">
          <mxGeometry y="30" width="190" height="30" as="geometry" />
        </mxCell>
        <mxCell id="m22iCB-XYUznmMrSTrO6-53" value="Компании" style="text;strokeColor=none;fillColor=none;align=left;verticalAlign=middle;spacingLeft=4;spacingRight=4;overflow=hidden;points=[[0,0.5],[1,0.5]];portConstraint=eastwest;rotatable=0;" vertex="1" parent="m22iCB-XYUznmMrSTrO6-51">
          <mxGeometry y="60" width="190" height="30" as="geometry" />
        </mxCell>
        <mxCell id="m22iCB-XYUznmMrSTrO6-60" value="Подтверждения компаний" style="swimlane;fontStyle=0;childLayout=stackLayout;horizontal=1;startSize=30;horizontalStack=0;resizeParent=1;resizeParentMax=0;resizeLast=0;collapsible=1;marginBottom=0;" vertex="1" parent="1">
          <mxGeometry x="-30" y="320" width="190" height="150" as="geometry" />
        </mxCell>
        <mxCell id="m22iCB-XYUznmMrSTrO6-61" value="Компания" style="text;strokeColor=none;fillColor=none;align=left;verticalAlign=middle;spacingLeft=4;spacingRight=4;overflow=hidden;points=[[0,0.5],[1,0.5]];portConstraint=eastwest;rotatable=0;" vertex="1" parent="m22iCB-XYUznmMrSTrO6-60">
          <mxGeometry y="30" width="190" height="30" as="geometry" />
        </mxCell>
        <mxCell id="m22iCB-XYUznmMrSTrO6-62" value="Статус" style="text;strokeColor=none;fillColor=none;align=left;verticalAlign=middle;spacingLeft=4;spacingRight=4;overflow=hidden;points=[[0,0.5],[1,0.5]];portConstraint=eastwest;rotatable=0;" vertex="1" parent="m22iCB-XYUznmMrSTrO6-60">
          <mxGeometry y="60" width="190" height="30" as="geometry" />
        </mxCell>
        <mxCell id="m22iCB-XYUznmMrSTrO6-63" value="Дата изменения" style="text;strokeColor=none;fillColor=none;align=left;verticalAlign=middle;spacingLeft=4;spacingRight=4;overflow=hidden;points=[[0,0.5],[1,0.5]];portConstraint=eastwest;rotatable=0;" vertex="1" parent="m22iCB-XYUznmMrSTrO6-60">
          <mxGeometry y="90" width="190" height="30" as="geometry" />
        </mxCell>
        <mxCell id="m22iCB-XYUznmMrSTrO6-64" value="Кем изменено" style="text;strokeColor=none;fillColor=none;align=left;verticalAlign=middle;spacingLeft=4;spacingRight=4;overflow=hidden;points=[[0,0.5],[1,0.5]];portConstraint=eastwest;rotatable=0;" vertex="1" parent="m22iCB-XYUznmMrSTrO6-60">
          <mxGeometry y="120" width="190" height="30" as="geometry" />
        </mxCell>
      </root>
    </mxGraphModel>
  </diagram>
</mxfile>
